<?xml version="1.0" standalone="no"?>
<!DOCTYPE svg PUBLIC "-//W3C//DTD SVG 20010904//EN"
 "http://www.w3.org/TR/2001/REC-SVG-20010904/DTD/svg10.dtd">
<svg version="1.0" xmlns="http://www.w3.org/2000/svg"
 width="132.000000pt" height="132.000000pt" viewBox="0 0 132.000000 132.000000"
 preserveAspectRatio="xMidYMid meet">
<metadata>
Created by potrace 1.14, written by Peter Selinger 2001-2017
</metadata>
<g transform="translate(0.000000,132.000000) scale(0.100000,-0.100000)"
fill="#000000" stroke="none">
<path d="M0 660 l0 -660 660 0 660 0 0 660 0 660 -660 0 -660 0 0 -660z m823
633 c-7 -2 -19 -2 -25 0 -7 3 -2 5 12 5 14 0 19 -2 13 -5z m80 0 c-7 -2 -19
-2 -25 0 -7 3 -2 5 12 5 14 0 19 -2 13 -5z m72 -23 c3 -6 -1 -7 -9 -4 -18 7
-21 14 -7 14 6 0 13 -4 16 -10z m-245 -3 c0 -2 -15 -16 -32 -33 l-33 -29 29
33 c28 30 36 37 36 29z m325 -57 c21 -22 37 -40 34 -40 -3 0 -23 18 -44 40
-21 22 -37 40 -34 40 3 0 23 -18 44 -40z m-151 -16 c42 -43 35 -104 -16 -130
-40 -21 -81 -10 -114 29 -69 82 53 178 130 101z m-246 -19 c-6 -14 -13 -23
-15 -21 -5 5 15 46 22 46 3 0 -1 -11 -7 -25z m452 -35 c6 -11 8 -20 6 -20 -3
0 -10 9 -16 20 -6 11 -8 20 -6 20 3 0 10 -9 16 -20z m-543 -16 c-3 -3 -12 -4
-19 -1 -8 3 -5 6 6 6 11 1 17 -2 13 -5z m-67 -109 c14 -19 14 -19 -2 -6 -10 7
-18 18 -18 24 0 6 1 8 3 6 1 -2 9 -13 17 -24z m657 -17 c-3 -8 -6 -5 -6 6 -1
11 2 17 5 13 3 -3 4 -12 1 -19z m10 -80 c-2 -13 -4 -5 -4 17 -1 22 1 32 4 23
2 -10 2 -28 0 -40z m-611 -7 c-9 -17 -19 -31 -22 -31 -2 0 3 14 11 30 9 17 13
36 9 43 -5 9 -4 9 5 1 10 -9 9 -18 -3 -43z m64 32 c0 -5 -12 -16 -25 -26 l-25
-18 12 26 c10 23 38 36 38 18z m111 -39 c25 -12 28 -18 18 -30 -6 -8 -9 -17
-6 -21 4 -3 -3 -17 -13 -31 -30 -37 -24 -50 8 -19 55 53 112 36 112 -34 0 -48
-9 -53 -46 -28 -27 19 -27 20 -4 13 22 -6 23 -5 11 10 -7 9 -27 16 -45 15 -27
0 -28 -2 -11 -10 17 -8 15 -9 -9 -5 -34 4 -56 -2 -56 -16 0 -20 47 -58 80 -63
35 -5 34 -5 -10 16 -25 12 -39 23 -33 26 7 3 28 -5 47 -16 18 -12 40 -21 47
-21 13 0 49 66 49 90 0 12 6 12 50 0 28 -8 35 -15 35 -34 0 -13 -2 -24 -5 -23
-35 8 -85 -57 -58 -75 7 -4 9 -8 4 -8 -6 0 -2 -6 7 -12 9 -7 17 -29 19 -48 2
-27 7 -35 21 -33 13 1 17 -3 11 -15 -3 -10 -7 -23 -7 -30 0 -6 -2 -10 -5 -7
-3 2 -18 -7 -34 -20 -46 -39 -101 -49 -188 -36 -41 7 -90 14 -108 16 -23 2
-48 19 -87 58 -57 57 -75 90 -75 137 l0 30 44 -43 c24 -23 46 -55 50 -70 9
-40 59 -67 124 -67 52 0 54 1 122 68 41 40 70 77 70 89 0 18 -4 19 -48 12 -30
-4 -72 -3 -108 4 -53 11 -59 15 -62 39 -3 25 -5 26 -32 16 -54 -18 -150 31
-150 77 0 25 41 55 75 55 29 0 76 -31 95 -63 18 -29 20 -30 20 -9 0 12 9 40
20 62 11 22 20 46 20 55 0 19 4 19 41 -1z m-113 -10 c-16 -8 -28 -20 -28 -26
0 -6 -3 -9 -6 -6 -11 11 21 48 41 48 17 -1 16 -3 -7 -16z m-131 -30 c-15 -8
-37 -30 -47 -47 -11 -18 -20 -26 -20 -18 0 17 64 81 82 81 7 -1 0 -8 -15 -16z
m143 7 c0 -6 -4 -13 -10 -16 -5 -3 -10 1 -10 9 0 9 5 16 10 16 6 0 10 -4 10
-9z m572 -86 l20 -30 -26 30 c-14 17 -25 39 -25 50 l1 20 5 -20 c3 -11 14 -33
25 -50z m-768 -51 c3 -8 2 -12 -4 -9 -6 3 -10 10 -10 16 0 14 7 11 14 -7z
m816 -60 c0 -32 -6 -50 -26 -71 l-26 -28 21 29 c23 31 28 93 10 129 -10 21
-10 21 5 3 9 -11 16 -39 16 -62z m-950 39 c-8 -3 -24 -10 -35 -15 -20 -9 -20
-9 -1 6 11 9 27 16 35 15 14 0 14 -1 1 -6z m143 -21 c-4 -10 -9 -10 -22 0 -9
7 -17 13 -19 14 -2 1 8 1 21 0 15 0 23 -6 20 -14z m-253 -22 c-8 -5 -23 -10
-32 -10 -9 0 -31 -12 -50 -27 l-33 -27 24 27 c14 15 39 31 55 36 42 12 54 13
36 1z m100 -43 c15 -12 28 -31 28 -42 0 -11 4 -34 7 -51 12 -56 -36 -124 -87
-124 l-31 0 37 25 c20 14 41 25 46 25 11 0 12 7 1 35 -7 18 -9 18 -26 -8 -22
-34 -48 -49 -69 -41 -21 8 -20 38 0 70 9 13 14 27 11 31 -4 3 -16 -11 -28 -31
-24 -41 -34 -44 -48 -18 -7 13 -6 23 1 30 7 7 9 12 5 12 -4 0 -3 9 3 20 6 11
7 20 2 20 -5 0 -15 -14 -22 -30 -14 -33 -33 -35 -38 -5 -2 10 0 15 6 11 6 -3
8 2 6 11 -9 39 60 89 110 79 24 -5 27 -3 16 5 -12 8 -8 9 14 4 16 -3 41 -16
56 -28z m851 -28 c21 -21 20 -44 -8 -87 -15 -24 -71 -62 -88 -61 -5 0 -4 3 3
6 6 2 10 9 7 14 -4 5 0 6 8 3 15 -5 77 60 77 81 -1 26 -20 39 -54 37 -34 -2
-45 6 -29 21 14 14 64 6 84 -14z m-1068 -14 c-3 -9 -8 -14 -10 -11 -3 3 -2 9
2 15 9 16 15 13 8 -4z m267 -16 c0 -6 -4 -7 -10 -4 -5 3 -10 11 -10 16 0 6 5
7 10 4 6 -3 10 -11 10 -16z m843 -9 c-3 -12 -8 -19 -11 -16 -5 6 5 36 12 36 2
0 2 -9 -1 -20z m-1126 -22 c-3 -8 -6 -5 -6 6 -1 11 2 17 5 13 3 -3 4 -12 1
-19z m354 -25 l34 -38 -36 33 c-19 18 -38 29 -42 26 -4 -4 -7 -2 -7 4 0 21 15
13 51 -25z m-312 -22 c-6 -2 -18 4 -27 13 -15 15 -15 15 10 4 15 -7 23 -15 17
-17z m1035 -12 c-16 -17 -38 -35 -49 -41 -11 -6 0 8 25 30 53 49 65 54 24 11z
m-797 -26 c-8 -15 -25 -37 -38 -48 -19 -17 -19 -14 4 13 15 19 30 46 34 60 3
15 8 22 10 15 2 -6 -2 -24 -10 -40z m-161 -14 c19 -22 19 -22 -3 -8 -13 8 -23
17 -23 21 0 12 6 9 26 -13z m243 18 c-2 -1 -15 -11 -29 -22 l-25 -20 19 23
c11 12 24 22 29 22 6 0 8 -1 6 -3z m-274 -27 c10 -11 16 -20 13 -20 -3 0 -13
9 -23 20 -10 11 -16 20 -13 20 3 0 13 -9 23 -20z m305 5 c0 -14 -39 -42 -50
-35 -8 5 -7 11 5 24 15 15 45 22 45 11z m537 -10 c0 -8 -4 -15 -9 -15 -10 0
-11 14 -1 23 9 10 10 9 10 -8z m56 -2 c-7 -2 -21 -2 -30 0 -10 3 -4 5 12 5 17
0 24 -2 18 -5z m-780 -40 c-7 -2 -21 -2 -30 0 -10 3 -4 5 12 5 17 0 24 -2 18
-5z m97 4 c0 -2 -12 -14 -27 -28 l-28 -24 24 28 c23 25 31 32 31 24z m715 -17
c10 -11 16 -20 13 -20 -3 0 -13 9 -23 20 -10 11 -16 20 -13 20 3 0 13 -9 23
-20z m-410 -33 c-11 -8 -29 -17 -39 -21 -19 -7 -19 -6 -1 14 10 11 27 20 39
20 20 0 20 0 1 -13z m432 -19 c-3 -8 -6 -5 -6 6 -1 11 2 17 5 13 3 -3 4 -12 1
-19z m-803 -13 c-9 -14 -18 -25 -21 -25 -5 0 5 18 20 38 17 22 18 13 1 -13z
m474 5 c26 -11 57 -35 70 -53 l23 -32 -6 30 -6 30 20 -24 c33 -37 23 -142 -14
-150 -17 -3 -17 -2 -2 13 9 9 13 24 10 32 -5 14 -7 14 -16 -2 -6 -11 -15 -22
-21 -26 -17 -12 -75 -9 -99 4 -12 7 -28 13 -34 14 -16 3 -17 -12 -1 -22 8 -5
6 -10 -8 -15 -18 -7 -17 -8 3 -8 27 -1 42 -21 16 -21 -27 0 -63 28 -63 50 0
10 11 31 25 46 14 15 25 29 25 31 0 6 -21 -7 -42 -24 -10 -9 -18 -11 -22 -4
-8 13 8 47 37 79 26 28 9 29 -21 2 -34 -32 -28 2 7 39 34 36 56 38 119 11z
m329 -32 c-3 -8 -6 -5 -6 6 -1 11 2 17 5 13 3 -3 4 -12 1 -19z m-839 -33 c-6
-14 -13 -23 -15 -21 -5 5 15 46 22 46 3 0 -1 -11 -7 -25z m823 -8 c-10 -9 -11
-8 -5 6 3 10 9 15 12 12 3 -3 0 -11 -7 -18z m-29 -39 c-11 -13 -36 -31 -54
-41 -32 -17 -32 -17 -8 0 13 10 36 28 50 40 33 29 39 29 12 1z m-737 -51 c6
-6 -5 -1 -23 9 -18 10 -41 28 -50 38 -15 18 47 -23 73 -47z m85 -37 c8 -5 11
-10 5 -10 -5 0 -17 5 -25 10 -8 5 -10 10 -5 10 6 0 17 -5 25 -10z m490 -10
c-13 -11 -27 -20 -33 -20 -12 0 35 39 47 40 5 0 -1 -9 -14 -20z m-140 -4 c0
-3 -4 -8 -10 -11 -5 -3 -10 -1 -10 4 0 6 5 11 10 11 6 0 10 -2 10 -4z m68 -3
c-10 -2 -26 -2 -35 0 -10 3 -2 5 17 5 19 0 27 -2 18 -5z m-341 -9 c-3 -3 -12
-4 -19 -1 -8 3 -5 6 6 6 11 1 17 -2 13 -5z m56 -11 c-7 -2 -19 -2 -25 0 -7 3
-2 5 12 5 14 0 19 -2 13 -5z m227 -8 c-7 -8 -26 -14 -44 -14 l-31 2 30 4 c17
3 34 9 40 14 15 15 19 10 5 -6z m-107 -2 c-18 -2 -48 -2 -65 0 -18 2 -4 4 32
4 36 0 50 -2 33 -4z"/>
<path d="M795 1166 c-29 -25 -37 -38 -29 -45 7 -8 17 -4 33 13 22 24 23 24 41
6 10 -10 20 -32 22 -49 5 -47 29 -23 36 34 5 46 4 48 -18 42 -16 -4 -23 -1
-27 14 -7 25 -11 24 -58 -15z"/>
<path d="M559 500 c13 -11 28 -20 35 -20 6 0 0 9 -14 20 -33 26 -52 25 -21 0z"/>
</g>
</svg>
